G04 MADE WITH FRITZING*
G04 WWW.FRITZING.ORG*
G04 DOUBLE SIDED*
G04 HOLES PLATED*
G04 CONTOUR ON CENTER OF CONTOUR VECTOR*
%ASAXBY*%
%FSLAX23Y23*%
%MOIN*%
%OFA0B0*%
%SFA1.0B1.0*%
%ADD10C,0.062992*%
%ADD11C,0.039370*%
%ADD12C,0.075000*%
%ADD13C,0.070000*%
%ADD14C,0.078000*%
%ADD15C,0.157480*%
%ADD16R,0.062992X0.062992*%
%ADD17R,0.075000X0.075000*%
%ADD18R,0.078000X0.078000*%
%ADD19C,0.024000*%
%LNCOPPER1*%
G90*
G70*
G54D10*
X226Y819D03*
X226Y721D03*
G54D11*
X1020Y410D03*
X684Y1442D03*
G54D12*
X526Y1321D03*
X826Y1321D03*
X526Y1221D03*
X826Y1221D03*
X526Y1121D03*
X826Y1121D03*
X526Y1021D03*
X826Y1021D03*
X526Y921D03*
X826Y921D03*
X526Y821D03*
X826Y821D03*
X526Y721D03*
X826Y721D03*
X926Y1921D03*
X1326Y1921D03*
X1126Y1621D03*
X1126Y1221D03*
X526Y1621D03*
X926Y1621D03*
X426Y321D03*
X826Y321D03*
X526Y1521D03*
X926Y1521D03*
X426Y521D03*
X826Y521D03*
X426Y221D03*
X826Y221D03*
X426Y421D03*
X826Y421D03*
G54D13*
X1026Y921D03*
X1126Y921D03*
X1026Y1021D03*
X1126Y1021D03*
G54D12*
X326Y1621D03*
X126Y1621D03*
X1326Y621D03*
X1126Y621D03*
X1226Y219D03*
X1026Y219D03*
G54D14*
X1526Y1321D03*
X1526Y1121D03*
X1526Y921D03*
X1326Y1321D03*
X1326Y1121D03*
X1326Y921D03*
X1526Y521D03*
X1526Y421D03*
X1526Y321D03*
X1526Y1821D03*
X1526Y1721D03*
X1526Y1621D03*
X426Y1921D03*
X626Y1921D03*
G54D15*
X126Y121D03*
X1526Y121D03*
X126Y2021D03*
X1526Y2021D03*
G54D16*
X226Y819D03*
G54D17*
X526Y1321D03*
X326Y1621D03*
X1326Y621D03*
X1226Y219D03*
G54D18*
X1526Y1321D03*
X1326Y1321D03*
G54D19*
X1226Y820D02*
X1313Y646D01*
D02*
X1226Y1120D02*
X1226Y820D01*
D02*
X1312Y1294D02*
X1226Y1120D01*
D02*
X1404Y410D02*
X1501Y339D01*
D02*
X1404Y962D02*
X1404Y410D01*
D02*
X1339Y1094D02*
X1404Y962D01*
D02*
X1126Y895D02*
X1126Y649D01*
D02*
X926Y1549D02*
X926Y1592D01*
D02*
X900Y1370D02*
X921Y1493D01*
D02*
X849Y1337D02*
X900Y1370D01*
D02*
X926Y1892D02*
X926Y1649D01*
D02*
X227Y1521D02*
X798Y1330D01*
D02*
X146Y1601D02*
X227Y1521D01*
D02*
X799Y909D02*
X756Y890D01*
D02*
X854Y221D02*
X998Y219D01*
D02*
X756Y770D02*
X802Y737D01*
D02*
X756Y890D02*
X756Y770D01*
D02*
X900Y1058D02*
X900Y962D01*
D02*
X847Y1102D02*
X900Y1058D01*
D02*
X900Y962D02*
X851Y935D01*
D02*
X446Y341D02*
X805Y701D01*
D02*
X424Y1020D02*
X505Y1101D01*
D02*
X424Y1020D02*
X424Y1020D01*
D02*
X424Y920D02*
X424Y1020D01*
D02*
X424Y1020D02*
X424Y1020D01*
D02*
X497Y921D02*
X424Y920D01*
D02*
X497Y1321D02*
X424Y1321D01*
D02*
X324Y121D02*
X625Y121D01*
D02*
X324Y222D02*
X324Y121D01*
D02*
X324Y522D02*
X324Y222D01*
D02*
X397Y521D02*
X324Y522D01*
D02*
X424Y1120D02*
X497Y1121D01*
D02*
X424Y1321D02*
X424Y1120D01*
D02*
X612Y410D02*
X825Y619D01*
D02*
X625Y121D02*
X612Y410D01*
D02*
X941Y622D02*
X960Y1058D01*
D02*
X1025Y1321D02*
X1326Y1621D01*
D02*
X960Y1058D02*
X1025Y1321D01*
D02*
X825Y619D02*
X941Y622D01*
D02*
X1026Y995D02*
X1026Y947D01*
D02*
X1526Y551D02*
X1526Y891D01*
D02*
X1326Y1621D02*
X1495Y1621D01*
D02*
X1020Y429D02*
X1025Y895D01*
D02*
X252Y721D02*
X497Y721D01*
D02*
X416Y1892D02*
X335Y1648D01*
D02*
X1020Y1994D02*
X1499Y1735D01*
D02*
X876Y1994D02*
X1020Y1994D01*
D02*
X690Y1460D02*
X876Y1994D01*
G04 End of Copper1*
M02*