G04 MADE WITH FRITZING*
G04 WWW.FRITZING.ORG*
G04 DOUBLE SIDED*
G04 HOLES PLATED*
G04 CONTOUR ON CENTER OF CONTOUR VECTOR*
%ASAXBY*%
%FSLAX23Y23*%
%MOIN*%
%OFA0B0*%
%SFA1.0B1.0*%
%ADD10C,0.062992*%
%ADD11C,0.039370*%
%ADD12C,0.075000*%
%ADD13C,0.070000*%
%ADD14C,0.078000*%
%ADD15C,0.157480*%
%ADD16R,0.062992X0.062992*%
%ADD17R,0.075000X0.075000*%
%ADD18R,0.078000X0.078000*%
%ADD19C,0.024000*%
%LNCOPPER0*%
G90*
G70*
G54D10*
X226Y819D03*
X226Y721D03*
G54D11*
X1020Y410D03*
X684Y1442D03*
G54D12*
X526Y1321D03*
X826Y1321D03*
X526Y1221D03*
X826Y1221D03*
X526Y1121D03*
X826Y1121D03*
X526Y1021D03*
X826Y1021D03*
X526Y921D03*
X826Y921D03*
X526Y821D03*
X826Y821D03*
X526Y721D03*
X826Y721D03*
X926Y1921D03*
X1326Y1921D03*
X1126Y1621D03*
X1126Y1221D03*
X526Y1621D03*
X926Y1621D03*
X426Y321D03*
X826Y321D03*
X526Y1521D03*
X926Y1521D03*
X426Y521D03*
X826Y521D03*
X426Y221D03*
X826Y221D03*
X426Y421D03*
X826Y421D03*
G54D13*
X1026Y921D03*
X1126Y921D03*
X1026Y1021D03*
X1126Y1021D03*
G54D12*
X326Y1621D03*
X126Y1621D03*
X1326Y621D03*
X1126Y621D03*
X1226Y219D03*
X1026Y219D03*
G54D14*
X1526Y1321D03*
X1526Y1121D03*
X1526Y921D03*
X1326Y1321D03*
X1326Y1121D03*
X1326Y921D03*
X1526Y521D03*
X1526Y421D03*
X1526Y321D03*
X1526Y1821D03*
X1526Y1721D03*
X1526Y1621D03*
X426Y1921D03*
X626Y1921D03*
G54D15*
X126Y121D03*
X1526Y121D03*
X126Y2021D03*
X1526Y2021D03*
G54D16*
X226Y819D03*
G54D17*
X526Y1321D03*
X326Y1621D03*
X1326Y621D03*
X1226Y219D03*
G54D18*
X1526Y1321D03*
X1326Y1321D03*
G54D19*
X182Y979D02*
X208Y1197D01*
D02*
X219Y845D02*
X182Y979D01*
D02*
X308Y1363D02*
X502Y1504D01*
D02*
X208Y1197D02*
X308Y1363D01*
D02*
X1502Y1302D02*
X1404Y1226D01*
X1404Y1226D02*
X1393Y352D01*
D02*
X1326Y222D02*
X1255Y220D01*
D02*
X1393Y352D02*
X1326Y222D01*
D02*
X925Y522D02*
X1100Y608D01*
D02*
X925Y422D02*
X925Y522D01*
D02*
X846Y341D02*
X925Y422D01*
D02*
X535Y1648D02*
X616Y1892D01*
D02*
X1513Y1093D02*
X1452Y962D01*
X1452Y962D02*
X1452Y458D01*
X1452Y458D02*
X1499Y434D01*
D02*
X505Y841D02*
X424Y920D01*
D02*
X424Y920D02*
X424Y1020D01*
D02*
X424Y1020D02*
X497Y1021D01*
D02*
X497Y1221D02*
X424Y1220D01*
D02*
X424Y1220D02*
X424Y1120D01*
D02*
X424Y1120D02*
X505Y1041D01*
D02*
X449Y237D02*
X492Y266D01*
X492Y266D02*
X524Y522D01*
D02*
X524Y522D02*
X424Y719D01*
D02*
X424Y719D02*
X424Y819D01*
D02*
X424Y819D02*
X497Y820D01*
D02*
X804Y1040D02*
X756Y1082D01*
D02*
X756Y1082D02*
X756Y1178D01*
D02*
X756Y1178D02*
X801Y1206D01*
D02*
X847Y840D02*
X900Y890D01*
D02*
X900Y890D02*
X900Y986D01*
D02*
X900Y986D02*
X851Y1009D01*
D02*
X1097Y1221D02*
X854Y1221D01*
D02*
X817Y548D02*
X780Y662D01*
D02*
X780Y662D02*
X756Y674D01*
D02*
X756Y674D02*
X756Y794D01*
D02*
X756Y794D02*
X799Y810D01*
D02*
X1097Y1621D02*
X954Y1621D01*
D02*
X1226Y920D02*
X1226Y820D01*
D02*
X1144Y1002D02*
X1226Y920D01*
D02*
X1226Y820D02*
X1217Y567D01*
D02*
X1126Y422D02*
X1039Y245D01*
D02*
X1125Y422D02*
X1126Y422D01*
D02*
X1217Y567D02*
X1125Y422D01*
D02*
X805Y441D02*
X725Y522D01*
D02*
X725Y522D02*
X696Y746D01*
D02*
X696Y746D02*
X546Y900D01*
D02*
X1315Y1894D02*
X1188Y1562D01*
X1188Y1562D02*
X996Y1466D01*
D02*
X996Y1466D02*
X553Y1329D01*
D02*
X1304Y942D02*
X1125Y1120D01*
D02*
X1125Y1120D02*
X1005Y1120D01*
D02*
X1005Y1120D02*
X1020Y1046D01*
D02*
X1538Y948D02*
X1596Y1082D01*
X1596Y1082D02*
X1596Y1394D01*
X1596Y1394D02*
X1260Y1394D01*
X1260Y1394D02*
X1260Y1058D01*
X1260Y1058D02*
X1313Y948D01*
D02*
X535Y694D02*
X725Y122D01*
D02*
X725Y122D02*
X925Y122D01*
D02*
X925Y122D02*
X1014Y392D01*
D02*
X1500Y1806D02*
X1452Y1778D01*
X1452Y1778D02*
X1452Y1586D01*
X1452Y1586D02*
X1596Y1394D01*
D02*
X309Y1597D02*
X84Y1274D01*
X84Y1274D02*
X84Y746D01*
X84Y746D02*
X199Y725D01*
D02*
X400Y433D02*
X348Y458D01*
X348Y458D02*
X324Y1220D01*
D02*
X324Y1220D02*
X468Y1394D01*
X468Y1394D02*
X665Y1438D01*
G04 End of Copper0*
M02*