G04 MADE WITH FRITZING*
G04 WWW.FRITZING.ORG*
G04 DOUBLE SIDED*
G04 HOLES PLATED*
G04 CONTOUR ON CENTER OF CONTOUR VECTOR*
%ASAXBY*%
%FSLAX23Y23*%
%MOIN*%
%OFA0B0*%
%SFA1.0B1.0*%
%ADD10C,0.072992*%
%ADD11C,0.049370*%
%ADD12C,0.085000*%
%ADD13C,0.080000*%
%ADD14C,0.088000*%
%ADD15C,0.167480*%
%ADD16R,0.072992X0.072992*%
%ADD17R,0.085000X0.085000*%
%ADD18R,0.088000X0.088000*%
%LNMASK1*%
G90*
G70*
G54D10*
X226Y819D03*
X226Y721D03*
G54D11*
X1020Y410D03*
X684Y1442D03*
G54D12*
X526Y1321D03*
X826Y1321D03*
X526Y1221D03*
X826Y1221D03*
X526Y1121D03*
X826Y1121D03*
X526Y1021D03*
X826Y1021D03*
X526Y921D03*
X826Y921D03*
X526Y821D03*
X826Y821D03*
X526Y721D03*
X826Y721D03*
X926Y1921D03*
X1326Y1921D03*
X1126Y1621D03*
X1126Y1221D03*
X526Y1621D03*
X926Y1621D03*
X426Y321D03*
X826Y321D03*
X526Y1521D03*
X926Y1521D03*
X426Y521D03*
X826Y521D03*
X426Y221D03*
X826Y221D03*
X426Y421D03*
X826Y421D03*
G54D13*
X1026Y921D03*
X1126Y921D03*
X1026Y1021D03*
X1126Y1021D03*
G54D12*
X326Y1621D03*
X126Y1621D03*
X1326Y621D03*
X1126Y621D03*
X1226Y219D03*
X1026Y219D03*
G54D14*
X1526Y1321D03*
X1526Y1121D03*
X1526Y921D03*
X1326Y1321D03*
X1326Y1121D03*
X1326Y921D03*
X1526Y521D03*
X1526Y421D03*
X1526Y321D03*
X1526Y1821D03*
X1526Y1721D03*
X1526Y1621D03*
X426Y1921D03*
X626Y1921D03*
G54D15*
X126Y121D03*
X1526Y121D03*
X126Y2021D03*
X1526Y2021D03*
G54D16*
X226Y819D03*
G54D17*
X526Y1321D03*
X326Y1621D03*
X1326Y621D03*
X1226Y219D03*
G54D18*
X1526Y1321D03*
X1326Y1321D03*
G04 End of Mask1*
M02*