; NON-PLATED HOLES START AT T1
; THROUGH (PLATED) HOLES START AT T100
M48
INCH
T100C0.038000
T101C0.118110
T102C0.015748
T103C0.031497
T104C0.030000
T105C0.035000
%
T100
X015255Y018207
X006255Y019207
X015255Y009207
X015255Y003207
X015255Y013207
X015255Y004207
X015255Y005207
X013255Y011207
X015255Y016207
X015255Y017207
X013255Y009207
X015255Y011207
X013255Y013207
X004255Y019207
T101
X015255Y001207
X015255Y020207
X001255Y001207
X001255Y020207
T102
X006840Y014419
X010200Y004099
T103
X002255Y008191
X002255Y007207
T104
X010255Y010207
X011257Y009207
X011257Y010207
X010255Y009207
T105
X008255Y004207
X005255Y009207
X011255Y006207
X013255Y006207
X013255Y019207
X008255Y009207
X004255Y002207
X005255Y010207
X008255Y010207
X009255Y015207
X005255Y015207
X011255Y012207
X008255Y002207
X005255Y007207
X008255Y007207
X010263Y002191
X012263Y002191
X004255Y005207
X005255Y013207
X008255Y013207
X008255Y005207
X004255Y003207
X005255Y011207
X008255Y011207
X001255Y016207
X003255Y016207
X009255Y016207
X005255Y016207
X008255Y003207
X005255Y008207
X008255Y008207
X009255Y019207
X011255Y016207
X004255Y004207
X005255Y012207
X008255Y012207
T00
M30
