G04 MADE WITH FRITZING*
G04 WWW.FRITZING.ORG*
G04 DOUBLE SIDED*
G04 HOLES PLATED*
G04 CONTOUR ON CENTER OF CONTOUR VECTOR*
%ASAXBY*%
%FSLAX23Y23*%
%MOIN*%
%OFA0B0*%
%SFA1.0B1.0*%
%ADD10C,0.120551*%
%ADD11C,0.094000*%
%ADD12C,0.088000*%
%ADD13C,0.096000*%
%ADD14C,0.057244*%
%ADD15C,0.088740*%
%ADD16C,0.072992*%
%ADD17C,0.049370*%
%ADD18C,0.085000*%
%ADD19C,0.080000*%
%ADD20C,0.167480*%
%ADD21R,0.072992X0.072992*%
%ADD22R,0.085000X0.085000*%
%ADD23R,0.088000X0.088000*%
%ADD24R,0.001000X0.001000*%
%LNMASK0*%
G90*
G70*
G54D10*
X2244Y972D03*
X2094Y822D03*
X2094Y1122D03*
G54D11*
X2374Y804D03*
X2374Y1139D03*
G54D10*
X2244Y1472D03*
X2094Y1322D03*
X2094Y1622D03*
G54D11*
X2374Y1304D03*
X2374Y1639D03*
G54D12*
X144Y2172D03*
X144Y2072D03*
X1044Y2472D03*
X1144Y2472D03*
X1244Y2472D03*
G54D13*
X1846Y275D03*
X1747Y472D03*
X1649Y472D03*
X1944Y472D03*
X2043Y472D03*
G54D14*
X1649Y275D03*
X1649Y176D03*
X2043Y176D03*
X2043Y275D03*
X1846Y472D03*
G54D13*
X1843Y2368D03*
X1941Y2172D03*
X2040Y2172D03*
X1744Y2172D03*
X1646Y2172D03*
G54D14*
X2040Y2368D03*
X2040Y2467D03*
X1646Y2467D03*
X1646Y2368D03*
X1843Y2172D03*
G54D15*
X641Y2153D03*
X641Y2402D03*
X444Y2272D03*
G54D16*
X244Y870D03*
X244Y772D03*
G54D17*
X1039Y461D03*
X703Y1493D03*
G54D18*
X544Y1372D03*
X844Y1372D03*
X544Y1272D03*
X844Y1272D03*
X544Y1172D03*
X844Y1172D03*
X544Y1072D03*
X844Y1072D03*
X544Y972D03*
X844Y972D03*
X544Y872D03*
X844Y872D03*
X544Y772D03*
X844Y772D03*
X944Y1972D03*
X1344Y1972D03*
X1144Y1672D03*
X1144Y1272D03*
X544Y1672D03*
X944Y1672D03*
X444Y372D03*
X844Y372D03*
X544Y1572D03*
X944Y1572D03*
X444Y572D03*
X844Y572D03*
X444Y272D03*
X844Y272D03*
X444Y472D03*
X844Y472D03*
G54D19*
X1044Y972D03*
X1145Y972D03*
X1044Y1072D03*
X1145Y1072D03*
G54D18*
X344Y1672D03*
X144Y1672D03*
X1344Y672D03*
X1144Y672D03*
X1245Y270D03*
X1045Y270D03*
G54D12*
X1544Y1372D03*
X1544Y1172D03*
X1544Y972D03*
X1344Y1372D03*
X1344Y1172D03*
X1344Y972D03*
X1544Y572D03*
X1544Y472D03*
X1544Y372D03*
X1544Y1872D03*
X1544Y1772D03*
X1544Y1672D03*
X444Y1972D03*
X644Y1972D03*
G54D20*
X144Y172D03*
X2244Y172D03*
X144Y2472D03*
X2244Y2472D03*
G54D21*
X244Y870D03*
G54D22*
X544Y1372D03*
X344Y1672D03*
X1344Y672D03*
X1245Y270D03*
G54D23*
X1544Y1372D03*
X1344Y1372D03*
G54D24*
X601Y2446D02*
X682Y2446D01*
X593Y2445D02*
X690Y2445D01*
X590Y2444D02*
X693Y2444D01*
X587Y2443D02*
X696Y2443D01*
X584Y2442D02*
X699Y2442D01*
X582Y2441D02*
X701Y2441D01*
X581Y2440D02*
X703Y2440D01*
X579Y2439D02*
X704Y2439D01*
X577Y2438D02*
X706Y2438D01*
X576Y2437D02*
X707Y2437D01*
X575Y2436D02*
X708Y2436D01*
X573Y2435D02*
X710Y2435D01*
X572Y2434D02*
X711Y2434D01*
X571Y2433D02*
X712Y2433D01*
X570Y2432D02*
X713Y2432D01*
X569Y2431D02*
X714Y2431D01*
X569Y2430D02*
X715Y2430D01*
X568Y2429D02*
X715Y2429D01*
X567Y2428D02*
X716Y2428D01*
X566Y2427D02*
X717Y2427D01*
X566Y2426D02*
X717Y2426D01*
X565Y2425D02*
X718Y2425D01*
X564Y2424D02*
X719Y2424D01*
X564Y2423D02*
X719Y2423D01*
X563Y2422D02*
X720Y2422D01*
X563Y2421D02*
X720Y2421D01*
X562Y2420D02*
X721Y2420D01*
X562Y2419D02*
X721Y2419D01*
X562Y2418D02*
X722Y2418D01*
X561Y2417D02*
X722Y2417D01*
X561Y2416D02*
X638Y2416D01*
X646Y2416D02*
X722Y2416D01*
X560Y2415D02*
X635Y2415D01*
X648Y2415D02*
X723Y2415D01*
X560Y2414D02*
X633Y2414D01*
X650Y2414D02*
X723Y2414D01*
X560Y2413D02*
X632Y2413D01*
X651Y2413D02*
X723Y2413D01*
X560Y2412D02*
X631Y2412D01*
X652Y2412D02*
X723Y2412D01*
X559Y2411D02*
X630Y2411D01*
X653Y2411D02*
X724Y2411D01*
X559Y2410D02*
X629Y2410D01*
X654Y2410D02*
X724Y2410D01*
X559Y2409D02*
X628Y2409D01*
X655Y2409D02*
X724Y2409D01*
X559Y2408D02*
X628Y2408D01*
X655Y2408D02*
X724Y2408D01*
X559Y2407D02*
X627Y2407D01*
X656Y2407D02*
X724Y2407D01*
X559Y2406D02*
X627Y2406D01*
X656Y2406D02*
X725Y2406D01*
X558Y2405D02*
X627Y2405D01*
X656Y2405D02*
X725Y2405D01*
X558Y2404D02*
X627Y2404D01*
X657Y2404D02*
X725Y2404D01*
X558Y2403D02*
X626Y2403D01*
X657Y2403D02*
X725Y2403D01*
X558Y2402D02*
X626Y2402D01*
X657Y2402D02*
X725Y2402D01*
X558Y2401D02*
X626Y2401D01*
X657Y2401D02*
X725Y2401D01*
X558Y2400D02*
X627Y2400D01*
X657Y2400D02*
X725Y2400D01*
X558Y2399D02*
X627Y2399D01*
X656Y2399D02*
X725Y2399D01*
X559Y2398D02*
X627Y2398D01*
X656Y2398D02*
X725Y2398D01*
X559Y2397D02*
X627Y2397D01*
X656Y2397D02*
X724Y2397D01*
X559Y2396D02*
X627Y2396D01*
X656Y2396D02*
X724Y2396D01*
X559Y2395D02*
X628Y2395D01*
X655Y2395D02*
X724Y2395D01*
X559Y2394D02*
X629Y2394D01*
X655Y2394D02*
X724Y2394D01*
X559Y2393D02*
X629Y2393D01*
X654Y2393D02*
X724Y2393D01*
X559Y2392D02*
X630Y2392D01*
X653Y2392D02*
X724Y2392D01*
X560Y2391D02*
X631Y2391D01*
X652Y2391D02*
X723Y2391D01*
X560Y2390D02*
X632Y2390D01*
X651Y2390D02*
X723Y2390D01*
X560Y2389D02*
X634Y2389D01*
X649Y2389D02*
X723Y2389D01*
X561Y2388D02*
X636Y2388D01*
X647Y2388D02*
X722Y2388D01*
X561Y2387D02*
X722Y2387D01*
X561Y2386D02*
X722Y2386D01*
X562Y2385D02*
X721Y2385D01*
X562Y2384D02*
X721Y2384D01*
X563Y2383D02*
X720Y2383D01*
X563Y2382D02*
X720Y2382D01*
X564Y2381D02*
X720Y2381D01*
X564Y2380D02*
X719Y2380D01*
X565Y2379D02*
X718Y2379D01*
X565Y2378D02*
X718Y2378D01*
X566Y2377D02*
X717Y2377D01*
X567Y2376D02*
X716Y2376D01*
X567Y2375D02*
X716Y2375D01*
X568Y2374D02*
X715Y2374D01*
X569Y2373D02*
X714Y2373D01*
X570Y2372D02*
X713Y2372D01*
X571Y2371D02*
X712Y2371D01*
X572Y2370D02*
X711Y2370D01*
X573Y2369D02*
X710Y2369D01*
X574Y2368D02*
X709Y2368D01*
X575Y2367D02*
X708Y2367D01*
X576Y2366D02*
X707Y2366D01*
X578Y2365D02*
X705Y2365D01*
X579Y2364D02*
X704Y2364D01*
X581Y2363D02*
X702Y2363D01*
X583Y2362D02*
X700Y2362D01*
X585Y2361D02*
X698Y2361D01*
X588Y2360D02*
X695Y2360D01*
X591Y2359D02*
X692Y2359D01*
X596Y2358D02*
X688Y2358D01*
X439Y2355D02*
X450Y2355D01*
X434Y2354D02*
X455Y2354D01*
X431Y2353D02*
X459Y2353D01*
X428Y2352D02*
X461Y2352D01*
X426Y2351D02*
X463Y2351D01*
X424Y2350D02*
X466Y2350D01*
X422Y2349D02*
X467Y2349D01*
X421Y2348D02*
X469Y2348D01*
X419Y2347D02*
X470Y2347D01*
X418Y2346D02*
X472Y2346D01*
X417Y2345D02*
X473Y2345D01*
X415Y2344D02*
X474Y2344D01*
X414Y2343D02*
X475Y2343D01*
X413Y2342D02*
X476Y2342D01*
X412Y2341D02*
X477Y2341D01*
X412Y2340D02*
X478Y2340D01*
X411Y2339D02*
X479Y2339D01*
X410Y2338D02*
X479Y2338D01*
X409Y2337D02*
X480Y2337D01*
X409Y2336D02*
X481Y2336D01*
X408Y2335D02*
X482Y2335D01*
X407Y2334D02*
X482Y2334D01*
X407Y2333D02*
X483Y2333D01*
X406Y2332D02*
X483Y2332D01*
X406Y2331D02*
X484Y2331D01*
X405Y2330D02*
X484Y2330D01*
X405Y2329D02*
X485Y2329D01*
X404Y2328D02*
X485Y2328D01*
X404Y2327D02*
X486Y2327D01*
X404Y2326D02*
X486Y2326D01*
X403Y2325D02*
X486Y2325D01*
X403Y2324D02*
X487Y2324D01*
X403Y2323D02*
X487Y2323D01*
X402Y2322D02*
X487Y2322D01*
X402Y2321D02*
X487Y2321D01*
X402Y2320D02*
X488Y2320D01*
X402Y2319D02*
X488Y2319D01*
X401Y2318D02*
X488Y2318D01*
X401Y2317D02*
X488Y2317D01*
X401Y2316D02*
X488Y2316D01*
X401Y2315D02*
X488Y2315D01*
X401Y2314D02*
X488Y2314D01*
X401Y2313D02*
X488Y2313D01*
X401Y2312D02*
X489Y2312D01*
X401Y2311D02*
X489Y2311D01*
X401Y2310D02*
X489Y2310D01*
X401Y2309D02*
X489Y2309D01*
X401Y2308D02*
X489Y2308D01*
X401Y2307D02*
X489Y2307D01*
X401Y2306D02*
X489Y2306D01*
X401Y2305D02*
X489Y2305D01*
X401Y2304D02*
X489Y2304D01*
X401Y2303D02*
X489Y2303D01*
X401Y2302D02*
X489Y2302D01*
X401Y2301D02*
X489Y2301D01*
X401Y2300D02*
X489Y2300D01*
X401Y2299D02*
X489Y2299D01*
X401Y2298D02*
X489Y2298D01*
X401Y2297D02*
X489Y2297D01*
X401Y2296D02*
X489Y2296D01*
X401Y2295D02*
X489Y2295D01*
X401Y2294D02*
X489Y2294D01*
X401Y2293D02*
X489Y2293D01*
X401Y2292D02*
X489Y2292D01*
X401Y2291D02*
X489Y2291D01*
X401Y2290D02*
X489Y2290D01*
X401Y2289D02*
X489Y2289D01*
X401Y2288D02*
X489Y2288D01*
X401Y2287D02*
X489Y2287D01*
X401Y2286D02*
X440Y2286D01*
X449Y2286D02*
X489Y2286D01*
X401Y2285D02*
X438Y2285D01*
X452Y2285D02*
X489Y2285D01*
X401Y2284D02*
X436Y2284D01*
X453Y2284D02*
X489Y2284D01*
X401Y2283D02*
X435Y2283D01*
X455Y2283D02*
X489Y2283D01*
X401Y2282D02*
X434Y2282D01*
X456Y2282D02*
X489Y2282D01*
X401Y2281D02*
X433Y2281D01*
X457Y2281D02*
X489Y2281D01*
X401Y2280D02*
X432Y2280D01*
X457Y2280D02*
X489Y2280D01*
X401Y2279D02*
X431Y2279D01*
X458Y2279D02*
X489Y2279D01*
X401Y2278D02*
X431Y2278D01*
X459Y2278D02*
X489Y2278D01*
X401Y2277D02*
X430Y2277D01*
X459Y2277D02*
X489Y2277D01*
X401Y2276D02*
X430Y2276D01*
X459Y2276D02*
X489Y2276D01*
X401Y2275D02*
X430Y2275D01*
X460Y2275D02*
X489Y2275D01*
X401Y2274D02*
X430Y2274D01*
X460Y2274D02*
X489Y2274D01*
X401Y2273D02*
X430Y2273D01*
X460Y2273D02*
X489Y2273D01*
X401Y2272D02*
X430Y2272D01*
X460Y2272D02*
X489Y2272D01*
X401Y2271D02*
X430Y2271D01*
X460Y2271D02*
X489Y2271D01*
X401Y2270D02*
X430Y2270D01*
X460Y2270D02*
X489Y2270D01*
X401Y2269D02*
X430Y2269D01*
X460Y2269D02*
X489Y2269D01*
X401Y2268D02*
X430Y2268D01*
X459Y2268D02*
X489Y2268D01*
X401Y2267D02*
X430Y2267D01*
X459Y2267D02*
X489Y2267D01*
X401Y2266D02*
X431Y2266D01*
X459Y2266D02*
X489Y2266D01*
X401Y2265D02*
X431Y2265D01*
X458Y2265D02*
X489Y2265D01*
X401Y2264D02*
X432Y2264D01*
X458Y2264D02*
X489Y2264D01*
X401Y2263D02*
X432Y2263D01*
X457Y2263D02*
X489Y2263D01*
X401Y2262D02*
X433Y2262D01*
X456Y2262D02*
X489Y2262D01*
X401Y2261D02*
X434Y2261D01*
X455Y2261D02*
X489Y2261D01*
X401Y2260D02*
X436Y2260D01*
X454Y2260D02*
X489Y2260D01*
X401Y2259D02*
X437Y2259D01*
X452Y2259D02*
X489Y2259D01*
X401Y2258D02*
X439Y2258D01*
X450Y2258D02*
X489Y2258D01*
X401Y2257D02*
X489Y2257D01*
X401Y2256D02*
X489Y2256D01*
X401Y2255D02*
X489Y2255D01*
X401Y2254D02*
X489Y2254D01*
X401Y2253D02*
X489Y2253D01*
X401Y2252D02*
X489Y2252D01*
X401Y2251D02*
X489Y2251D01*
X401Y2250D02*
X489Y2250D01*
X401Y2249D02*
X489Y2249D01*
X401Y2248D02*
X489Y2248D01*
X401Y2247D02*
X489Y2247D01*
X401Y2246D02*
X489Y2246D01*
X401Y2245D02*
X489Y2245D01*
X401Y2244D02*
X489Y2244D01*
X401Y2243D02*
X489Y2243D01*
X401Y2242D02*
X489Y2242D01*
X401Y2241D02*
X489Y2241D01*
X401Y2240D02*
X489Y2240D01*
X401Y2239D02*
X489Y2239D01*
X401Y2238D02*
X489Y2238D01*
X401Y2237D02*
X489Y2237D01*
X401Y2236D02*
X489Y2236D01*
X401Y2235D02*
X489Y2235D01*
X401Y2234D02*
X489Y2234D01*
X401Y2233D02*
X489Y2233D01*
X401Y2232D02*
X489Y2232D01*
X401Y2231D02*
X489Y2231D01*
X401Y2230D02*
X488Y2230D01*
X401Y2229D02*
X488Y2229D01*
X401Y2228D02*
X488Y2228D01*
X401Y2227D02*
X488Y2227D01*
X401Y2226D02*
X488Y2226D01*
X402Y2225D02*
X488Y2225D01*
X402Y2224D02*
X488Y2224D01*
X402Y2223D02*
X488Y2223D01*
X402Y2222D02*
X487Y2222D01*
X402Y2221D02*
X487Y2221D01*
X403Y2220D02*
X487Y2220D01*
X403Y2219D02*
X486Y2219D01*
X403Y2218D02*
X486Y2218D01*
X404Y2217D02*
X486Y2217D01*
X404Y2216D02*
X485Y2216D01*
X405Y2215D02*
X485Y2215D01*
X405Y2214D02*
X484Y2214D01*
X405Y2213D02*
X484Y2213D01*
X406Y2212D02*
X483Y2212D01*
X406Y2211D02*
X483Y2211D01*
X407Y2210D02*
X482Y2210D01*
X408Y2209D02*
X482Y2209D01*
X408Y2208D02*
X481Y2208D01*
X409Y2207D02*
X480Y2207D01*
X410Y2206D02*
X480Y2206D01*
X410Y2205D02*
X479Y2205D01*
X411Y2204D02*
X478Y2204D01*
X412Y2203D02*
X477Y2203D01*
X413Y2202D02*
X476Y2202D01*
X414Y2201D02*
X476Y2201D01*
X415Y2200D02*
X474Y2200D01*
X416Y2199D02*
X473Y2199D01*
X417Y2198D02*
X472Y2198D01*
X601Y2198D02*
X682Y2198D01*
X419Y2197D02*
X471Y2197D01*
X593Y2197D02*
X690Y2197D01*
X420Y2196D02*
X469Y2196D01*
X590Y2196D02*
X693Y2196D01*
X422Y2195D02*
X468Y2195D01*
X587Y2195D02*
X696Y2195D01*
X423Y2194D02*
X466Y2194D01*
X584Y2194D02*
X699Y2194D01*
X425Y2193D02*
X464Y2193D01*
X582Y2193D02*
X701Y2193D01*
X427Y2192D02*
X462Y2192D01*
X581Y2192D02*
X703Y2192D01*
X430Y2191D02*
X460Y2191D01*
X579Y2191D02*
X704Y2191D01*
X433Y2190D02*
X457Y2190D01*
X577Y2190D02*
X706Y2190D01*
X436Y2189D02*
X453Y2189D01*
X576Y2189D02*
X707Y2189D01*
X575Y2188D02*
X708Y2188D01*
X573Y2187D02*
X710Y2187D01*
X572Y2186D02*
X711Y2186D01*
X571Y2185D02*
X712Y2185D01*
X570Y2184D02*
X713Y2184D01*
X569Y2183D02*
X714Y2183D01*
X569Y2182D02*
X715Y2182D01*
X568Y2181D02*
X715Y2181D01*
X567Y2180D02*
X716Y2180D01*
X566Y2179D02*
X717Y2179D01*
X566Y2178D02*
X717Y2178D01*
X565Y2177D02*
X718Y2177D01*
X564Y2176D02*
X719Y2176D01*
X564Y2175D02*
X719Y2175D01*
X563Y2174D02*
X720Y2174D01*
X563Y2173D02*
X720Y2173D01*
X562Y2172D02*
X721Y2172D01*
X562Y2171D02*
X721Y2171D01*
X562Y2170D02*
X722Y2170D01*
X561Y2169D02*
X722Y2169D01*
X561Y2168D02*
X638Y2168D01*
X646Y2168D02*
X722Y2168D01*
X560Y2167D02*
X635Y2167D01*
X648Y2167D02*
X723Y2167D01*
X560Y2166D02*
X633Y2166D01*
X650Y2166D02*
X723Y2166D01*
X560Y2165D02*
X632Y2165D01*
X651Y2165D02*
X723Y2165D01*
X560Y2164D02*
X631Y2164D01*
X652Y2164D02*
X723Y2164D01*
X559Y2163D02*
X630Y2163D01*
X653Y2163D02*
X724Y2163D01*
X559Y2162D02*
X629Y2162D01*
X654Y2162D02*
X724Y2162D01*
X559Y2161D02*
X628Y2161D01*
X655Y2161D02*
X724Y2161D01*
X559Y2160D02*
X628Y2160D01*
X655Y2160D02*
X724Y2160D01*
X559Y2159D02*
X627Y2159D01*
X656Y2159D02*
X724Y2159D01*
X559Y2158D02*
X627Y2158D01*
X656Y2158D02*
X725Y2158D01*
X558Y2157D02*
X627Y2157D01*
X656Y2157D02*
X725Y2157D01*
X558Y2156D02*
X627Y2156D01*
X657Y2156D02*
X725Y2156D01*
X558Y2155D02*
X626Y2155D01*
X657Y2155D02*
X725Y2155D01*
X558Y2154D02*
X626Y2154D01*
X657Y2154D02*
X725Y2154D01*
X558Y2153D02*
X626Y2153D01*
X657Y2153D02*
X725Y2153D01*
X558Y2152D02*
X627Y2152D01*
X657Y2152D02*
X725Y2152D01*
X558Y2151D02*
X627Y2151D01*
X656Y2151D02*
X725Y2151D01*
X559Y2150D02*
X627Y2150D01*
X656Y2150D02*
X725Y2150D01*
X559Y2149D02*
X627Y2149D01*
X656Y2149D02*
X724Y2149D01*
X559Y2148D02*
X627Y2148D01*
X656Y2148D02*
X724Y2148D01*
X559Y2147D02*
X628Y2147D01*
X655Y2147D02*
X724Y2147D01*
X559Y2146D02*
X629Y2146D01*
X655Y2146D02*
X724Y2146D01*
X559Y2145D02*
X629Y2145D01*
X654Y2145D02*
X724Y2145D01*
X559Y2144D02*
X630Y2144D01*
X653Y2144D02*
X724Y2144D01*
X560Y2143D02*
X631Y2143D01*
X652Y2143D02*
X723Y2143D01*
X560Y2142D02*
X632Y2142D01*
X651Y2142D02*
X723Y2142D01*
X560Y2141D02*
X634Y2141D01*
X649Y2141D02*
X723Y2141D01*
X561Y2140D02*
X636Y2140D01*
X647Y2140D02*
X722Y2140D01*
X561Y2139D02*
X722Y2139D01*
X561Y2138D02*
X722Y2138D01*
X562Y2137D02*
X721Y2137D01*
X562Y2136D02*
X721Y2136D01*
X563Y2135D02*
X720Y2135D01*
X563Y2134D02*
X720Y2134D01*
X564Y2133D02*
X720Y2133D01*
X564Y2132D02*
X719Y2132D01*
X565Y2131D02*
X718Y2131D01*
X565Y2130D02*
X718Y2130D01*
X566Y2129D02*
X717Y2129D01*
X567Y2128D02*
X716Y2128D01*
X567Y2127D02*
X716Y2127D01*
X568Y2126D02*
X715Y2126D01*
X569Y2125D02*
X714Y2125D01*
X570Y2124D02*
X713Y2124D01*
X571Y2123D02*
X712Y2123D01*
X572Y2122D02*
X711Y2122D01*
X573Y2121D02*
X710Y2121D01*
X574Y2120D02*
X709Y2120D01*
X575Y2119D02*
X708Y2119D01*
X576Y2118D02*
X707Y2118D01*
X578Y2117D02*
X705Y2117D01*
X579Y2116D02*
X704Y2116D01*
X581Y2115D02*
X702Y2115D01*
X583Y2114D02*
X700Y2114D01*
X585Y2113D02*
X698Y2113D01*
X588Y2112D02*
X695Y2112D01*
X591Y2111D02*
X692Y2111D01*
X596Y2110D02*
X688Y2110D01*
D02*
G04 End of Mask0*
M02*