; NON-PLATED HOLES START AT T1
; THROUGH (PLATED) HOLES START AT T100
M48
INCH
T1C0.084000
T2C0.047244
T100C0.030000
T101C0.031497
T102C0.015748
T103C0.090551
T104C0.039370
T105C0.051181
T106C0.035000
T107C0.118110
T108C0.038000
%
T1
X023743Y013042
X023743Y011389
X023743Y016389
X023743Y008042
T2
X016459Y023684
X020427Y002747
X016490Y002747
X018459Y004716
X020427Y001763
X018427Y021716
X016490Y001763
X020396Y023684
X016459Y024668
X020396Y024668
T100
X010443Y010715
X010443Y009715
X011445Y009715
X011445Y010715
T101
X002443Y008700
X002443Y007716
T102
X010387Y004608
X007027Y014928
T103
X022443Y009715
X020936Y016222
X022443Y014715
X020936Y008219
X020936Y011222
X020936Y013219
T104
X006411Y024015
X006411Y021534
X004443Y022716
T105
X018427Y023684
X019443Y004716
X018459Y002747
X017474Y004716
X020396Y021716
X016490Y004716
X016459Y021716
X020427Y004716
X017443Y021716
X019411Y021716
T106
X009443Y015715
X001443Y016715
X009443Y019716
X003443Y016715
X008443Y005715
X004443Y005715
X009443Y016716
X005443Y015715
X013443Y019716
X008443Y009715
X008443Y004715
X005443Y010715
X004443Y003715
X005443Y013715
X008443Y008715
X005443Y009715
X004443Y002715
X005443Y007715
X008443Y011715
X008443Y003715
X008443Y010715
X008443Y012715
X005443Y016716
X011443Y016716
X005443Y012715
X008443Y007715
X005443Y008715
X005443Y011715
X008443Y013715
X011443Y006715
X012450Y002699
X004443Y004715
X010450Y002699
X013443Y006715
X008443Y002715
X011443Y012715
T107
X022443Y024716
X001443Y001716
X001443Y024716
X022443Y001716
T108
X015443Y003715
X013443Y013715
X012443Y024716
X015443Y016716
X015443Y013715
X001443Y021716
X004443Y019716
X015443Y009715
X013443Y011715
X006443Y019716
X015443Y018716
X013443Y009715
X015443Y005715
X001443Y020716
X015443Y004715
X010443Y024716
X015443Y011715
X015443Y017716
X011443Y024716
T00
M30
